<?xml version="1.0" standalone="no"?>
<!DOCTYPE svg PUBLIC "-//W3C//DTD SVG 20010904//EN"
 "http://www.w3.org/TR/2001/REC-SVG-20010904/DTD/svg10.dtd">
<svg version="1.0" xmlns="http://www.w3.org/2000/svg"
 width="500.000000pt" height="500.000000pt" viewBox="0 0 500.000000 500.000000"
 preserveAspectRatio="xMidYMid meet">

<g transform="translate(0.000000,500.000000) scale(0.100000,-0.100000)"
fill="#000000" stroke="none">
<path d="M195 4890 c-28 -11 -62 -46 -80 -80 -13 -26 -15 -289 -13 -2322 3
-2275 3 -2293 23 -2320 11 -15 38 -37 61 -48 40 -20 55 -20 2314 -20 2259 0
2274 0 2314 20 23 11 50 33 61 48 20 27 20 45 23 2321 l2 2293 -21 37 c-11 20
-32 45 -47 56 -27 20 -44 20 -2322 22 -1262 1 -2304 -2 -2315 -7z m3475 -1240
l284 -5 -219 -159 c-121 -88 -224 -162 -228 -167 -5 -4 30 -126 77 -272 47
-146 86 -268 86 -271 0 -3 -102 69 -226 159 -125 91 -229 165 -233 165 -3 0
-108 -74 -231 -164 -124 -90 -226 -163 -227 -162 -1 1 36 119 82 262 47 142
85 264 85 270 0 6 -102 84 -226 175 l-226 164 284 3 283 2 79 248 c44 136 83
258 88 272 8 21 23 -17 97 -245 l87 -270 284 -5z m-1353 -615 c494 -1229 523
-1296 591 -1375 43 -51 91 -76 165 -85 l57 -7 0 -49 0 -49 -435 0 -435 0 0 49
0 48 77 7 c206 19 217 73 84 422 l-79 209 -358 0 -358 0 -43 -105 c-106 -261
-142 -428 -104 -474 24 -29 67 -46 131 -53 l60 -6 0 -48 0 -49 -325 0 -325 0
0 49 0 48 42 7 c60 10 127 42 167 79 18 18 50 66 70 107 20 41 187 454 371
918 l335 842 59 -2 59 -3 194 -480z"/>
<path d="M3203 3840 c-6 -14 -30 -85 -54 -157 l-43 -133 -165 -2 -165 -3 129
-94 c72 -52 132 -96 133 -97 2 -1 -19 -74 -47 -160 -27 -87 -49 -159 -48 -160
1 -1 59 41 130 92 70 52 132 94 138 94 6 0 67 -41 136 -91 68 -50 126 -89 128
-87 2 2 -18 71 -45 153 l-50 150 28 23 c15 12 76 58 137 102 l109 80 -170 0
-170 0 -50 158 c-45 139 -52 154 -61 132z"/>
<path d="M1981 3099 c-5 -13 -72 -183 -150 -378 -78 -194 -141 -357 -141 -362
0 -5 134 -9 299 -9 l298 0 -144 382 c-79 210 -146 384 -148 386 -2 3 -9 -6
-14 -19z"/>
</g>
</svg>
