<?xml version="1.0" standalone="no"?>
<!DOCTYPE svg PUBLIC "-//W3C//DTD SVG 20010904//EN"
 "http://www.w3.org/TR/2001/REC-SVG-20010904/DTD/svg10.dtd">
<svg version="1.0" xmlns="http://www.w3.org/2000/svg"
 width="500.000000pt" height="500.000000pt" viewBox="0 0 500.000000 500.000000"
 preserveAspectRatio="xMidYMid meet">

<g transform="translate(0.000000,500.000000) scale(0.100000,-0.100000)"
fill="#000000" stroke="none">
<path d="M184 4991 c-45 -11 -100 -48 -129 -85 -59 -77 -55 89 -55 -2405 0
-1544 3 -2298 10 -2323 16 -56 69 -119 125 -147 l49 -26 2316 0 2315 0 47 23
c53 26 104 84 124 140 11 30 13 463 14 2328 0 2025 -2 2296 -15 2335 -21 60
-58 104 -113 136 l-47 28 -2305 2 c-1268 0 -2319 -2 -2336 -6z m4648 -116 c15
-11 36 -36 47 -56 l21 -37 -2 -2293 c-3 -2276 -3 -2294 -23 -2321 -11 -15 -38
-37 -61 -48 -40 -20 -55 -20 -2314 -20 -2259 0 -2274 0 -2314 20 -23 11 -50
33 -61 48 -20 27 -20 45 -23 2320 -2 2033 0 2296 13 2322 18 34 52 69 80 80
11 5 1053 8 2315 7 2278 -2 2295 -2 2322 -22z"/>
<path d="M3202 4170 c-5 -14 -44 -136 -88 -272 l-79 -248 -283 -2 -284 -3 226
-164 c124 -91 226 -169 226 -175 0 -6 -38 -128 -85 -270 -46 -143 -83 -261
-82 -262 1 -1 103 72 227 162 123 90 228 164 231 164 4 0 108 -74 233 -165
124 -90 226 -162 226 -159 0 3 -39 125 -86 271 -47 146 -82 268 -77 272 4 5
107 79 228 167 l219 159 -284 5 -284 5 -87 270 c-74 228 -89 266 -97 245z
m282 -620 l170 0 -109 -80 c-61 -44 -122 -90 -137 -102 l-28 -23 50 -150 c27
-82 47 -151 45 -153 -2 -2 -60 37 -128 87 -69 50 -130 91 -136 91 -6 0 -68
-42 -138 -94 -71 -51 -129 -93 -130 -92 -1 1 21 73 48 160 28 86 49 159 47
160 -1 1 -61 45 -133 97 l-129 94 165 3 165 2 43 133 c69 207 57 205 115 25
l50 -158 170 0z"/>
<path d="M1670 2678 c-184 -464 -351 -877 -371 -918 -20 -41 -52 -89 -70 -107
-40 -37 -107 -69 -167 -79 l-42 -7 0 -48 0 -49 325 0 325 0 0 49 0 48 -60 6
c-64 7 -107 24 -131 53 -38 46 -2 213 104 474 l43 105 358 0 358 0 79 -209
c133 -349 122 -403 -84 -422 l-77 -7 0 -48 0 -49 435 0 435 0 0 49 0 49 -57 7
c-74 9 -122 34 -165 85 -68 79 -100 153 -592 1375 l-193 480 -59 3 -59 2 -335
-842z m473 54 l144 -382 -298 0 c-165 0 -299 4 -299 9 0 5 63 168 141 362 78
195 145 365 150 378 5 13 12 22 14 19 2 -2 69 -176 148 -386z"/>
</g>
</svg>
